<svg width="97" height="97" viewBox="0 0 97 97" fill="none" xmlns="http://www.w3.org/2000/svg">
<g clip-path="url(#clip0_49_1090)">
<path d="M24.5 76.0605C28.9183 76.0605 32.5 72.4788 32.5 68.0605C32.5 63.6423 28.9183 60.0605 24.5 60.0605C20.0817 60.0605 16.5 63.6423 16.5 68.0605C16.5 72.4788 20.0817 76.0605 24.5 76.0605Z" stroke="#F3E7E7" stroke-width="5" stroke-linecap="round" stroke-linejoin="round"/>
<path d="M72.5 76.0605C76.9183 76.0605 80.5 72.4788 80.5 68.0605C80.5 63.6423 76.9183 60.0605 72.5 60.0605C68.0817 60.0605 64.5 63.6423 64.5 68.0605C64.5 72.4788 68.0817 76.0605 72.5 76.0605Z" stroke="#F3E7E7" stroke-width="5" stroke-linecap="round" stroke-linejoin="round"/>
<path d="M16.5 68.0605H8.5V24.0605C8.5 22.9997 8.92143 21.9823 9.67157 21.2321C10.4217 20.482 11.4391 20.0605 12.5 20.0605H68.5C73.8043 20.0605 78.8914 23.0105 82.6421 28.2616C86.3929 33.5126 88.5 40.6345 88.5 48.0605V68.0605H80.5M64.5 68.0605H32.5" stroke="#F3E7E7" stroke-width="5" stroke-linecap="round" stroke-linejoin="round"/>
<path d="M64.5 20.0605L70.5 48.0605H88.5" stroke="#F3E7E7" stroke-width="5" stroke-linecap="round" stroke-linejoin="round"/>
<path d="M8.5 40.0605H68.5" stroke="#F3E7E7" stroke-width="5" stroke-linecap="round" stroke-linejoin="round"/>
<path d="M28.5 20.0605V40.0605" stroke="#F3E7E7" stroke-width="5" stroke-linecap="round" stroke-linejoin="round"/>
<path d="M48.5 20.0605V40.0605" stroke="#F3E7E7" stroke-width="5" stroke-linecap="round" stroke-linejoin="round"/>
</g>
<defs>
<clipPath id="clip0_49_1090">
<rect width="96" height="96" fill="white" transform="translate(0.5 0.0605469)"/>
</clipPath>
</defs>
</svg>
